<svg xmlns="http://www.w3.org/2000/svg" xml:space="preserve" viewBox="-7.83 9.13 1080 1080"><path fill="none" stroke="#000" stroke-width="2" d="M5.08 5.78h336.91v337.67H5.08Z" transform="matrix(3.02 0 0 3 9.63 29.11)" vector-effect="non-scaling-stroke"/><path fill="none" stroke="#000" stroke-width="2" d="M282.73 40.55c0-8.37 6.97-15.16 15.56-15.16 4.13 0 8.09 1.6 11 4.44a14.97 14.97 0 0 1 4.56 10.72c0 8.38-6.96 15.17-15.56 15.17-8.59 0-15.56-6.8-15.56-15.17z" transform="matrix(3.02 0 0 3 9.66 29.11)" vector-effect="non-scaling-stroke"/><path fill="#656565" d="M321.08 692.88H83.65V455.46h237.43zM89.53 687H315.2V461.34H89.53zm894.18 5.88H746.3V455.46h237.42zM752.17 687h225.66V461.34H752.17z" vector-effect="non-scaling-stroke"/><rect width="66.17" height="66.17" x="-33.08" y="-33.08" rx="0" ry="0" transform="matrix(5.55 0 0 2.29 532.69 575.67)" vector-effect="non-scaling-stroke"/><path d="M127.08 538.87h8.77l16.74 28.75 16.61-28.75h8.78l-21.35 36.62v33.29h-8.2v-33.3zm58.86 0h38.16v7.96h-30v20.7h28.75v7.96H194.1v25.33h30.72v7.96h-38.89zm88.49 2.29v9.23q-4.65-2.58-8.77-3.84-4.12-1.27-7.96-1.27-6.67 0-10.31 3-3.6 3-3.6 8.52 0 4.64 2.39 7.03 2.42 2.34 9.13 3.79l4.93 1.17q9.14 2.01 13.47 7.12 4.36 5.05 4.36 13.58 0 10.16-5.9 15.4-5.86 5.25-17.22 5.25-4.29 0-9.14-1.13-4.8-1.12-9.98-3.32v-9.74q4.97 3.23 9.74 4.87 4.77 1.64 9.38 1.64 7 0 10.8-3.19 3.8-3.18 3.8-9.08 0-5.15-2.76-8.05-2.7-2.9-8.93-4.36l-4.97-1.12q-9.14-2.11-13.22-6.6-4.09-4.5-4.09-12.5 0-9.28 5.62-14.62 5.66-5.34 15.57-5.34 4.24 0 8.65.9 4.4.88 9.01 2.66z" aria-label="YES"/><path d="M803.22 537.78h13.04l31.73 63.66v-63.66h9.4v76.1h-13.05l-31.73-63.66v63.65h-9.4zm102.48 6.99q-10.55 0-16.78 8.35-6.18 8.36-6.18 22.78 0 14.38 6.18 22.73 6.23 8.36 16.78 8.36 10.54 0 16.68-8.36 6.18-8.35 6.18-22.73 0-14.42-6.18-22.78-6.14-8.35-16.68-8.35zm0-8.36q15.05 0 24.06 10.75 9.01 10.7 9.01 28.74 0 18-9 28.75-9.02 10.7-24.07 10.7-15.1 0-24.16-10.7-9.01-10.7-9.01-28.75 0-18.04 9.01-28.74 9.06-10.75 24.16-10.75z" aria-label="NO"/><path fill="#ff0" d="M494.19 570.41q-9.25 0-14.7 6.33-5.37 6.32-5.37 17.34 0 10.95 5.38 17.35 5.44 6.32 14.69 6.32t14.62-6.32q5.44-6.4 5.44-17.35 0-11.02-5.44-17.34-5.37-6.33-14.62-6.33zm27.27-43.05v12.51q-5.17-2.45-10.47-3.74-5.24-1.3-10.4-1.3-13.61 0-20.82 9.19-7.14 9.18-8.16 27.75 4-5.92 10.06-9.05 6.06-3.2 13.33-3.2 15.3 0 24.15 9.33 8.91 9.25 8.91 25.23 0 15.64-9.25 25.1-9.25 9.45-24.62 9.45-17.62 0-26.94-13.46-9.32-13.54-9.32-39.18 0-24.08 11.43-38.36 11.43-14.36 30.68-14.36 5.17 0 10.4 1.03 5.3 1.02 11.02 3.06zm30.68 97.19v-12.51q5.17 2.45 10.47 3.74 5.3 1.3 10.41 1.3 13.6 0 20.75-9.12 7.2-9.19 8.23-27.82-3.95 5.85-10 8.98-6.06 3.12-13.4 3.12-15.24 0-24.15-9.18-8.84-9.25-8.84-25.23 0-15.65 9.25-25.1 9.25-9.46 24.62-9.46 17.62 0 26.87 13.54 9.32 13.47 9.32 39.18 0 24-11.43 38.36-11.36 14.28-30.6 14.28-5.18 0-10.48-1.02-5.3-1.02-11.02-3.06zm27.34-43.05q9.25 0 14.63-6.33 5.44-6.32 5.44-17.34 0-10.95-5.44-17.28-5.38-6.4-14.63-6.4t-14.69 6.4q-5.37 6.33-5.37 17.28 0 11.02 5.37 17.34 5.44 6.33 14.7 6.33z" aria-label="69"/></svg>